<?xml version="1.0" encoding="UTF-8"?>
<svg width="40" height="40" viewBox="0 0 40 40" fill="none" xmlns="http://www.w3.org/2000/svg">
  <rect width="40" height="40" rx="20" fill="#4F46E5" fill-opacity="0.1"/>
  <path d="M20 11C14.477 11 10 15.477 10 21C10 26.523 14.477 31 20 31C25.523 31 30 26.523 30 21C30 15.477 25.523 11 20 11ZM20 29C15.582 29 12 25.418 12 21C12 16.582 15.582 13 20 13C24.418 13 28 16.582 28 21C28 25.418 24.418 29 20 29Z" fill="#4F46E5"/>
  <path d="M20 15C17.239 15 15 17.239 15 20C15 22.761 17.239 25 20 25C22.761 25 25 22.761 25 20C25 17.239 22.761 15 20 15ZM20 23C18.343 23 17 21.657 17 20C17 18.343 18.343 17 20 17C21.657 17 23 18.343 23 20C23 21.657 21.657 23 20 23Z" fill="#4F46E5"/>
  <circle cx="20" cy="20" r="2" fill="#4F46E5"/>
</svg> 